<svg xmlns="http://www.w3.org/2000/svg" xmlns:xlink="http://www.w3.org/1999/xlink" width="1920" zoomAndPan="magnify" viewBox="0 0 1440 809.999993" height="1080" preserveAspectRatio="xMidYMid meet" version="1.0"><defs><g/></defs><path stroke-linecap="butt" transform="matrix(0.64308, 0, 0, 0.64308, 63.57097, 322.87354)" fill="none" stroke-linejoin="miter" d="M 881.255361 44.538884 L 868.67553 44.538884 L 868.67553 31.965126 L 742.950105 31.965126 L 742.950105 44.538884 L 755.529937 44.538884 L 755.529937 57.118715 L 742.950105 57.118715 L 742.950105 69.698547 L 730.376348 69.698547 L 730.376348 57.118715 L 717.796516 57.118715 L 717.796516 182.84414 L 730.376348 182.84414 L 730.376348 195.423972 L 742.950105 195.423972 L 742.950105 207.997729 L 868.67553 207.997729 L 868.67553 195.423972 L 881.255361 195.423972 L 881.255361 182.84414 L 893.835193 182.84414 L 893.835193 57.118715 L 881.255361 57.118715 Z M 805.843189 157.690551 L 805.843189 69.698547 L 843.521941 69.698547 L 843.521941 157.690551 Z M 805.843189 157.690551 " stroke="#000000" stroke-width="35.540592" stroke-opacity="1" stroke-miterlimit="4"/><path stroke-linecap="butt" transform="matrix(0.64308, 0, 0, 0.64308, 63.57097, 322.87354)" fill="none" stroke-linejoin="miter" d="M 1082.459776 44.538884 L 1069.879944 44.538884 L 1069.879944 31.965126 L 931.580762 31.965126 L 931.580762 44.538884 L 956.734351 44.538884 L 956.734351 57.118715 L 944.154519 57.118715 L 944.154519 69.698547 L 931.580762 69.698547 L 931.580762 82.272304 L 1032.146524 82.272304 L 1032.146524 94.852136 L 944.154519 94.852136 L 944.154519 107.377299 L 931.580762 107.377299 L 931.580762 119.957131 L 919.000931 119.957131 L 919.000931 195.423972 L 931.580762 195.423972 L 931.580762 207.997729 L 1082.459776 207.997729 L 1082.459776 195.423972 L 1095.039608 195.423972 L 1095.039608 157.690551 L 1082.459776 157.690551 L 1082.459776 145.11072 L 1007.041529 145.11072 L 1007.041529 132.530888 L 1069.879944 132.530888 L 1069.879944 119.957131 L 1082.459776 119.957131 L 1082.459776 107.377299 L 1095.039608 107.377299 L 1095.039608 57.118715 L 1082.459776 57.118715 Z M 931.580762 44.538884 L 919.000931 44.538884 L 919.000931 69.698547 L 931.580762 69.698547 Z M 931.580762 44.538884 " stroke="#000000" stroke-width="35.540592" stroke-opacity="1" stroke-miterlimit="4"/><path stroke-linecap="butt" transform="matrix(0.64308, 0, 0, 0.64308, 63.57097, 322.87354)" fill="none" stroke-linejoin="miter" d="M 1283.664191 31.965126 L 1132.779102 31.965126 L 1132.779102 44.538884 L 1157.938766 44.538884 L 1157.938766 57.118715 L 1145.358934 57.118715 L 1145.358934 69.698547 L 1132.779102 69.698547 L 1132.779102 44.538884 L 1120.205345 44.538884 L 1120.205345 195.423972 L 1132.779102 195.423972 L 1132.779102 207.997729 L 1195.672186 207.997729 L 1195.672186 195.423972 L 1208.245944 195.423972 L 1208.245944 132.530888 L 1283.664191 132.530888 L 1283.664191 119.957131 L 1296.237948 119.957131 L 1296.237948 107.377299 L 1283.664191 107.377299 L 1283.664191 94.852136 L 1208.245944 94.852136 L 1208.245944 69.698547 L 1283.664191 69.698547 L 1283.664191 57.118715 L 1296.237948 57.118715 L 1296.237948 44.538884 L 1283.664191 44.538884 Z M 1283.664191 31.965126 " stroke="#000000" stroke-width="35.540592" stroke-opacity="1" stroke-miterlimit="4"/><g fill="#ffffff" fill-opacity="1"><g transform="translate(525.172109, 456.634273)"><g><path d="M 105.125 -105.125 L 97.03125 -105.125 L 97.03125 -113.203125 L 16.171875 -113.203125 L 16.171875 -105.125 L 24.265625 -105.125 L 24.265625 -97.03125 L 16.171875 -97.03125 L 16.171875 -88.953125 L 8.09375 -88.953125 L 8.09375 -97.03125 L 0 -97.03125 L 0 -16.171875 L 8.09375 -16.171875 L 8.09375 -8.09375 L 16.171875 -8.09375 L 16.171875 0 L 97.03125 0 L 97.03125 -8.09375 L 105.125 -8.09375 L 105.125 -16.171875 L 113.203125 -16.171875 L 113.203125 -97.03125 L 105.125 -97.03125 Z M 56.609375 -32.34375 L 56.609375 -88.953125 L 80.859375 -88.953125 L 80.859375 -32.34375 Z M 56.609375 -32.34375 "/></g></g></g><g fill="#ff66c4" fill-opacity="1"><g transform="translate(654.561902, 456.634273)"><g><path d="M 105.125 -105.125 L 97.03125 -105.125 L 97.03125 -113.203125 L 8.09375 -113.203125 L 8.09375 -105.125 L 24.265625 -105.125 L 24.265625 -97.03125 L 16.171875 -97.03125 L 16.171875 -88.953125 L 8.09375 -88.953125 L 8.09375 -80.859375 L 72.78125 -80.859375 L 72.78125 -72.78125 L 16.171875 -72.78125 L 16.171875 -64.6875 L 8.09375 -64.6875 L 8.09375 -56.609375 L 0 -56.609375 L 0 -8.09375 L 8.09375 -8.09375 L 8.09375 0 L 105.125 0 L 105.125 -8.09375 L 113.203125 -8.09375 L 113.203125 -32.34375 L 105.125 -32.34375 L 105.125 -40.4375 L 56.609375 -40.4375 L 56.609375 -48.515625 L 97.03125 -48.515625 L 97.03125 -56.609375 L 105.125 -56.609375 L 105.125 -64.6875 L 113.203125 -64.6875 L 113.203125 -97.03125 L 105.125 -97.03125 Z M 8.09375 -105.125 L 0 -105.125 L 0 -88.953125 L 8.09375 -88.953125 Z M 8.09375 -105.125 "/></g></g></g><g fill="#ffffff" fill-opacity="1"><g transform="translate(783.951701, 456.634273)"><g><path d="M 105.125 -113.203125 L 8.09375 -113.203125 L 8.09375 -105.125 L 24.265625 -105.125 L 24.265625 -97.03125 L 16.171875 -97.03125 L 16.171875 -88.953125 L 8.09375 -88.953125 L 8.09375 -105.125 L 0 -105.125 L 0 -8.09375 L 8.09375 -8.09375 L 8.09375 0 L 48.515625 0 L 48.515625 -8.09375 L 56.609375 -8.09375 L 56.609375 -48.515625 L 105.125 -48.515625 L 105.125 -56.609375 L 113.203125 -56.609375 L 113.203125 -64.6875 L 105.125 -64.6875 L 105.125 -72.78125 L 56.609375 -72.78125 L 56.609375 -88.953125 L 105.125 -88.953125 L 105.125 -97.03125 L 113.203125 -97.03125 L 113.203125 -105.125 L 105.125 -105.125 Z M 105.125 -113.203125 "/></g></g></g></svg>