<svg xmlns="http://www.w3.org/2000/svg" xmlns:xlink="http://www.w3.org/1999/xlink" width="1920" zoomAndPan="magnify" viewBox="0 0 1440 809.999993" height="1080" preserveAspectRatio="xMidYMid meet" version="1.0"><defs><g/></defs><path stroke-linecap="butt" transform="matrix(1.003022, 0, 0, 1.003022, 63.57097, 322.87354)" fill="none" stroke-linejoin="miter" d="M 230.459235 20.132035 L 133.720292 20.132035 L 133.720292 28.197508 L 149.847344 28.197508 L 149.847344 36.262982 L 141.785765 36.262982 L 141.785765 44.32456 L 133.720292 44.32456 L 133.720292 52.390033 L 174.043763 52.390033 L 174.043763 60.455506 L 165.97829 60.455506 L 165.97829 68.485929 L 157.912817 68.485929 L 157.912817 76.551402 L 149.847344 76.551402 L 149.847344 84.612981 L 141.785765 84.612981 L 141.785765 92.678454 L 133.720292 92.678454 L 133.720292 100.743927 L 125.654819 100.743927 L 125.654819 124.936452 L 133.720292 124.936452 L 133.720292 133.001925 L 230.459235 133.001925 L 230.459235 124.936452 L 238.524708 124.936452 L 238.524708 100.743927 L 230.459235 100.743927 L 230.459235 92.678454 L 198.201238 92.678454 L 198.201238 84.612981 L 206.266711 84.612981 L 206.266711 76.551402 L 214.332184 76.551402 L 214.332184 68.485929 L 222.393762 68.485929 L 222.393762 60.455506 L 230.459235 60.455506 L 230.459235 52.390033 L 238.524708 52.390033 L 238.524708 28.197508 L 230.459235 28.197508 Z M 133.720292 28.197508 L 125.654819 28.197508 L 125.654819 44.32456 L 133.720292 44.32456 Z M 343.317441 36.262982 L 262.70555 36.262982 L 262.70555 44.32456 L 278.832601 44.32456 L 278.832601 52.390033 L 270.771023 52.390033 L 270.771023 60.455506 L 262.70555 60.455506 L 262.70555 44.32456 L 254.640077 44.32456 L 254.640077 124.936452 L 262.70555 124.936452 L 262.70555 133.001925 L 343.317441 133.001925 L 343.317441 124.936452 L 351.37902 124.936452 L 351.37902 108.805505 L 343.317441 108.805505 L 343.317441 100.743927 L 303.029021 100.743927 L 303.029021 92.678454 L 343.317441 92.678454 L 343.317441 84.612981 L 351.37902 84.612981 L 351.37902 76.551402 L 343.317441 76.551402 L 343.317441 68.485929 L 303.029021 68.485929 L 303.029021 60.455506 L 343.317441 60.455506 L 343.317441 52.390033 L 351.37902 52.390033 L 351.37902 44.32456 L 343.317441 44.32456 Z M 456.179541 44.32456 L 448.114068 44.32456 L 448.114068 36.262982 L 375.56765 36.262982 L 375.56765 44.32456 L 391.694702 44.32456 L 391.694702 52.390033 L 383.633123 52.390033 L 383.633123 60.455506 L 375.56765 60.455506 L 375.56765 44.32456 L 367.502177 44.32456 L 367.502177 124.936452 L 375.56765 124.936452 L 375.56765 133.001925 L 407.825648 133.001925 L 407.825648 124.936452 L 415.891121 124.936452 L 415.891121 100.743927 L 423.952699 100.743927 L 423.952699 108.805505 L 432.018173 108.805505 L 432.018173 116.870978 L 440.048595 116.870978 L 440.048595 124.936452 L 448.114068 124.936452 L 448.114068 133.001925 L 456.179541 133.001925 L 456.179541 124.936452 L 464.24112 124.936452 L 464.24112 100.743927 L 456.179541 100.743927 L 456.179541 92.678454 L 448.114068 92.678454 L 448.114068 84.612981 L 456.179541 84.612981 L 456.179541 76.551402 L 464.24112 76.551402 L 464.24112 52.390033 L 456.179541 52.390033 Z M 415.891121 68.485929 L 415.891121 60.455506 L 440.048595 60.455506 L 440.048595 68.485929 Z M 569.037747 44.32456 L 560.976169 44.32456 L 560.976169 36.262982 L 496.495223 36.262982 L 496.495223 44.32456 L 504.556802 44.32456 L 504.556802 52.390033 L 496.495223 52.390033 L 496.495223 60.455506 L 488.42975 60.455506 L 488.42975 52.390033 L 480.364277 52.390033 L 480.364277 116.870978 L 488.42975 116.870978 L 488.42975 124.936452 L 496.495223 124.936452 L 496.495223 133.001925 L 560.976169 133.001925 L 560.976169 124.936452 L 569.037747 124.936452 L 569.037747 116.870978 L 577.10322 116.870978 L 577.10322 52.390033 L 569.037747 52.390033 Z M 552.910696 100.743927 L 528.753221 100.743927 L 528.753221 60.455506 L 552.910696 60.455506 Z M 552.910696 100.743927 " stroke="#000000" stroke-width="22.786558" stroke-opacity="1" stroke-miterlimit="4"/><path stroke-linecap="butt" transform="matrix(1.003022, 0, 0, 1.003022, 63.57097, 322.87354)" fill="none" stroke-linejoin="miter" d="M 698.038583 28.197508 L 689.973109 28.197508 L 689.973109 20.132035 L 601.299639 20.132035 L 601.299639 28.197508 L 617.426691 28.197508 L 617.426691 36.262982 L 609.361218 36.262982 L 609.361218 44.32456 L 601.299639 44.32456 L 601.299639 52.390033 L 665.780585 52.390033 L 665.780585 60.455506 L 609.361218 60.455506 L 609.361218 68.485929 L 601.299639 68.485929 L 601.299639 76.551402 L 593.234166 76.551402 L 593.234166 124.936452 L 601.299639 124.936452 L 601.299639 133.001925 L 698.038583 133.001925 L 698.038583 124.936452 L 706.100161 124.936452 L 706.100161 100.743927 L 698.038583 100.743927 L 698.038583 92.678454 L 649.684689 92.678454 L 649.684689 84.612981 L 689.973109 84.612981 L 689.973109 76.551402 L 698.038583 76.551402 L 698.038583 68.485929 L 706.100161 68.485929 L 706.100161 36.262982 L 698.038583 36.262982 Z M 601.299639 28.197508 L 593.234166 28.197508 L 593.234166 44.32456 L 601.299639 44.32456 Z M 601.299639 28.197508 " stroke="#000000" stroke-width="22.786558" stroke-opacity="1" stroke-miterlimit="4"/><path stroke-linecap="butt" transform="matrix(1.003022, 0, 0, 1.003022, 63.57097, 322.87354)" fill="none" stroke-linejoin="miter" d="M 827.035523 20.132035 L 730.300475 20.132035 L 730.300475 28.197508 L 746.427526 28.197508 L 746.427526 36.262982 L 738.362053 36.262982 L 738.362053 44.32456 L 730.300475 44.32456 L 730.300475 28.197508 L 722.235002 28.197508 L 722.235002 124.936452 L 730.300475 124.936452 L 730.300475 133.001925 L 770.620051 133.001925 L 770.620051 124.936452 L 778.685524 124.936452 L 778.685524 84.612981 L 827.035523 84.612981 L 827.035523 76.551402 L 835.100996 76.551402 L 835.100996 68.485929 L 827.035523 68.485929 L 827.035523 60.455506 L 778.685524 60.455506 L 778.685524 44.32456 L 827.035523 44.32456 L 827.035523 36.262982 L 835.100996 36.262982 L 835.100996 28.197508 L 827.035523 28.197508 Z M 931.828256 100.743927 L 899.605309 100.743927 L 899.605309 44.32456 L 891.539836 44.32456 L 891.539836 36.262982 L 859.285732 36.262982 L 859.285732 44.32456 L 875.412784 44.32456 L 875.412784 52.390033 L 867.347311 52.390033 L 867.347311 60.455506 L 859.285732 60.455506 L 859.285732 44.32456 L 851.220259 44.32456 L 851.220259 124.936452 L 859.285732 124.936452 L 859.285732 133.001925 L 931.828256 133.001925 L 931.828256 124.936452 L 939.893729 124.936452 L 939.893729 108.805505 L 931.828256 108.805505 Z M 1044.694251 44.32456 L 1036.628778 44.32456 L 1036.628778 36.262982 L 972.147833 36.262982 L 972.147833 44.32456 L 980.213306 44.32456 L 980.213306 52.390033 L 972.147833 52.390033 L 972.147833 60.455506 L 964.086254 60.455506 L 964.086254 52.390033 L 956.020781 52.390033 L 956.020781 124.936452 L 964.086254 124.936452 L 964.086254 133.001925 L 996.340357 133.001925 L 996.340357 124.936452 L 1004.40583 124.936452 L 1004.40583 92.678454 L 1028.567199 92.678454 L 1028.567199 124.936452 L 1036.628778 124.936452 L 1036.628778 133.001925 L 1044.694251 133.001925 L 1044.694251 124.936452 L 1052.759724 124.936452 L 1052.759724 52.390033 L 1044.694251 52.390033 Z M 1028.567199 68.485929 L 1004.40583 68.485929 L 1004.40583 60.455506 L 1028.567199 60.455506 Z M 1157.556351 36.262982 L 1085.009933 36.262982 L 1085.009933 44.32456 L 1093.075406 44.32456 L 1093.075406 52.390033 L 1085.009933 52.390033 L 1085.009933 60.455506 L 1076.948354 60.455506 L 1076.948354 52.390033 L 1068.882881 52.390033 L 1068.882881 116.870978 L 1076.948354 116.870978 L 1076.948354 124.936452 L 1085.009933 124.936452 L 1085.009933 133.001925 L 1149.490878 133.001925 L 1149.490878 124.936452 L 1157.556351 124.936452 L 1157.556351 116.870978 L 1165.621824 116.870978 L 1165.621824 76.551402 L 1157.556351 76.551402 L 1157.556351 68.485929 L 1133.394982 68.485929 L 1133.394982 76.551402 L 1125.333404 76.551402 L 1125.333404 84.612981 L 1133.394982 84.612981 L 1133.394982 92.678454 L 1141.429299 92.678454 L 1141.429299 100.743927 L 1117.267931 100.743927 L 1117.267931 60.455506 L 1157.556351 60.455506 L 1157.556351 52.390033 L 1165.621824 52.390033 L 1165.621824 44.32456 L 1157.556351 44.32456 Z M 1157.556351 36.262982 " stroke="#000000" stroke-width="22.786558" stroke-opacity="1" stroke-miterlimit="4"/><g fill="#ffffff" fill-opacity="1"><g transform="translate(189.606904, 456.275413)"><g><path d="M 105.125 -113.203125 L 8.09375 -113.203125 L 8.09375 -105.125 L 24.265625 -105.125 L 24.265625 -97.03125 L 16.171875 -97.03125 L 16.171875 -88.953125 L 8.09375 -88.953125 L 8.09375 -80.859375 L 48.515625 -80.859375 L 48.515625 -72.78125 L 40.4375 -72.78125 L 40.4375 -64.6875 L 32.34375 -64.6875 L 32.34375 -56.609375 L 24.265625 -56.609375 L 24.265625 -48.515625 L 16.171875 -48.515625 L 16.171875 -40.4375 L 8.09375 -40.4375 L 8.09375 -32.34375 L 0 -32.34375 L 0 -8.09375 L 8.09375 -8.09375 L 8.09375 0 L 105.125 0 L 105.125 -8.09375 L 113.203125 -8.09375 L 113.203125 -32.34375 L 105.125 -32.34375 L 105.125 -40.4375 L 72.78125 -40.4375 L 72.78125 -48.515625 L 80.859375 -48.515625 L 80.859375 -56.609375 L 88.953125 -56.609375 L 88.953125 -64.6875 L 97.03125 -64.6875 L 97.03125 -72.78125 L 105.125 -72.78125 L 105.125 -80.859375 L 113.203125 -80.859375 L 113.203125 -105.125 L 105.125 -105.125 Z M 8.09375 -105.125 L 0 -105.125 L 0 -88.953125 L 8.09375 -88.953125 Z M 8.09375 -105.125 "/></g></g></g><g fill="#ffffff" fill-opacity="1"><g transform="translate(318.98186, 456.275413)"><g><path d="M 88.953125 -97.03125 L 8.09375 -97.03125 L 8.09375 -88.953125 L 24.265625 -88.953125 L 24.265625 -80.859375 L 16.171875 -80.859375 L 16.171875 -72.78125 L 8.09375 -72.78125 L 8.09375 -88.953125 L 0 -88.953125 L 0 -8.09375 L 8.09375 -8.09375 L 8.09375 0 L 88.953125 0 L 88.953125 -8.09375 L 97.03125 -8.09375 L 97.03125 -24.265625 L 88.953125 -24.265625 L 88.953125 -32.34375 L 48.515625 -32.34375 L 48.515625 -40.4375 L 88.953125 -40.4375 L 88.953125 -48.515625 L 97.03125 -48.515625 L 97.03125 -56.609375 L 88.953125 -56.609375 L 88.953125 -64.6875 L 48.515625 -64.6875 L 48.515625 -72.78125 L 88.953125 -72.78125 L 88.953125 -80.859375 L 97.03125 -80.859375 L 97.03125 -88.953125 L 88.953125 -88.953125 Z M 88.953125 -97.03125 "/></g></g></g><g fill="#ffffff" fill-opacity="1"><g transform="translate(432.184946, 456.275413)"><g><path d="M 88.953125 -88.953125 L 80.859375 -88.953125 L 80.859375 -97.03125 L 8.09375 -97.03125 L 8.09375 -88.953125 L 24.265625 -88.953125 L 24.265625 -80.859375 L 16.171875 -80.859375 L 16.171875 -72.78125 L 8.09375 -72.78125 L 8.09375 -88.953125 L 0 -88.953125 L 0 -8.09375 L 8.09375 -8.09375 L 8.09375 0 L 40.4375 0 L 40.4375 -8.09375 L 48.515625 -8.09375 L 48.515625 -32.34375 L 56.609375 -32.34375 L 56.609375 -24.265625 L 64.6875 -24.265625 L 64.6875 -16.171875 L 72.78125 -16.171875 L 72.78125 -8.09375 L 80.859375 -8.09375 L 80.859375 0 L 88.953125 0 L 88.953125 -8.09375 L 97.03125 -8.09375 L 97.03125 -32.34375 L 88.953125 -32.34375 L 88.953125 -40.4375 L 80.859375 -40.4375 L 80.859375 -48.515625 L 88.953125 -48.515625 L 88.953125 -56.609375 L 97.03125 -56.609375 L 97.03125 -80.859375 L 88.953125 -80.859375 Z M 48.515625 -64.6875 L 48.515625 -72.78125 L 72.78125 -72.78125 L 72.78125 -64.6875 Z M 48.515625 -64.6875 "/></g></g></g><g fill="#ffffff" fill-opacity="1"><g transform="translate(545.388047, 456.275413)"><g><path d="M 88.953125 -88.953125 L 80.859375 -88.953125 L 80.859375 -97.03125 L 16.171875 -97.03125 L 16.171875 -88.953125 L 24.265625 -88.953125 L 24.265625 -80.859375 L 16.171875 -80.859375 L 16.171875 -72.78125 L 8.09375 -72.78125 L 8.09375 -80.859375 L 0 -80.859375 L 0 -16.171875 L 8.09375 -16.171875 L 8.09375 -8.09375 L 16.171875 -8.09375 L 16.171875 0 L 80.859375 0 L 80.859375 -8.09375 L 88.953125 -8.09375 L 88.953125 -16.171875 L 97.03125 -16.171875 L 97.03125 -80.859375 L 88.953125 -80.859375 Z M 72.78125 -32.34375 L 48.515625 -32.34375 L 48.515625 -72.78125 L 72.78125 -72.78125 Z M 72.78125 -32.34375 "/></g></g></g><g fill="#ff66c4" fill-opacity="1"><g transform="translate(658.597871, 456.275413)"><g><path d="M 105.125 -105.125 L 97.03125 -105.125 L 97.03125 -113.203125 L 8.09375 -113.203125 L 8.09375 -105.125 L 24.265625 -105.125 L 24.265625 -97.03125 L 16.171875 -97.03125 L 16.171875 -88.953125 L 8.09375 -88.953125 L 8.09375 -80.859375 L 72.78125 -80.859375 L 72.78125 -72.78125 L 16.171875 -72.78125 L 16.171875 -64.6875 L 8.09375 -64.6875 L 8.09375 -56.609375 L 0 -56.609375 L 0 -8.09375 L 8.09375 -8.09375 L 8.09375 0 L 105.125 0 L 105.125 -8.09375 L 113.203125 -8.09375 L 113.203125 -32.34375 L 105.125 -32.34375 L 105.125 -40.4375 L 56.609375 -40.4375 L 56.609375 -48.515625 L 97.03125 -48.515625 L 97.03125 -56.609375 L 105.125 -56.609375 L 105.125 -64.6875 L 113.203125 -64.6875 L 113.203125 -97.03125 L 105.125 -97.03125 Z M 8.09375 -105.125 L 0 -105.125 L 0 -88.953125 L 8.09375 -88.953125 Z M 8.09375 -105.125 "/></g></g></g><g fill="#ffffff" fill-opacity="1"><g transform="translate(787.987658, 456.275413)"><g><path d="M 105.125 -113.203125 L 8.09375 -113.203125 L 8.09375 -105.125 L 24.265625 -105.125 L 24.265625 -97.03125 L 16.171875 -97.03125 L 16.171875 -88.953125 L 8.09375 -88.953125 L 8.09375 -105.125 L 0 -105.125 L 0 -8.09375 L 8.09375 -8.09375 L 8.09375 0 L 48.515625 0 L 48.515625 -8.09375 L 56.609375 -8.09375 L 56.609375 -48.515625 L 105.125 -48.515625 L 105.125 -56.609375 L 113.203125 -56.609375 L 113.203125 -64.6875 L 105.125 -64.6875 L 105.125 -72.78125 L 56.609375 -72.78125 L 56.609375 -88.953125 L 105.125 -88.953125 L 105.125 -97.03125 L 113.203125 -97.03125 L 113.203125 -105.125 L 105.125 -105.125 Z M 105.125 -113.203125 "/></g></g></g><g fill="#ffffff" fill-opacity="1"><g transform="translate(917.362614, 456.275413)"><g><path d="M 80.859375 -32.34375 L 48.515625 -32.34375 L 48.515625 -88.953125 L 40.4375 -88.953125 L 40.4375 -97.03125 L 8.09375 -97.03125 L 8.09375 -88.953125 L 24.265625 -88.953125 L 24.265625 -80.859375 L 16.171875 -80.859375 L 16.171875 -72.78125 L 8.09375 -72.78125 L 8.09375 -88.953125 L 0 -88.953125 L 0 -8.09375 L 8.09375 -8.09375 L 8.09375 0 L 80.859375 0 L 80.859375 -8.09375 L 88.953125 -8.09375 L 88.953125 -24.265625 L 80.859375 -24.265625 Z M 80.859375 -32.34375 "/></g></g></g><g fill="#ffffff" fill-opacity="1"><g transform="translate(1022.479771, 456.275413)"><g><path d="M 88.953125 -88.953125 L 80.859375 -88.953125 L 80.859375 -97.03125 L 16.171875 -97.03125 L 16.171875 -88.953125 L 24.265625 -88.953125 L 24.265625 -80.859375 L 16.171875 -80.859375 L 16.171875 -72.78125 L 8.09375 -72.78125 L 8.09375 -80.859375 L 0 -80.859375 L 0 -8.09375 L 8.09375 -8.09375 L 8.09375 0 L 40.4375 0 L 40.4375 -8.09375 L 48.515625 -8.09375 L 48.515625 -40.4375 L 72.78125 -40.4375 L 72.78125 -8.09375 L 80.859375 -8.09375 L 80.859375 0 L 88.953125 0 L 88.953125 -8.09375 L 97.03125 -8.09375 L 97.03125 -80.859375 L 88.953125 -80.859375 Z M 72.78125 -64.6875 L 48.515625 -64.6875 L 48.515625 -72.78125 L 72.78125 -72.78125 Z M 72.78125 -64.6875 "/></g></g></g><g fill="#ffffff" fill-opacity="1"><g transform="translate(1135.682856, 456.275413)"><g><path d="M 88.953125 -97.03125 L 16.171875 -97.03125 L 16.171875 -88.953125 L 24.265625 -88.953125 L 24.265625 -80.859375 L 16.171875 -80.859375 L 16.171875 -72.78125 L 8.09375 -72.78125 L 8.09375 -80.859375 L 0 -80.859375 L 0 -16.171875 L 8.09375 -16.171875 L 8.09375 -8.09375 L 16.171875 -8.09375 L 16.171875 0 L 80.859375 0 L 80.859375 -8.09375 L 88.953125 -8.09375 L 88.953125 -16.171875 L 97.03125 -16.171875 L 97.03125 -56.609375 L 88.953125 -56.609375 L 88.953125 -64.6875 L 64.6875 -64.6875 L 64.6875 -56.609375 L 56.609375 -56.609375 L 56.609375 -48.515625 L 64.6875 -48.515625 L 64.6875 -40.4375 L 72.78125 -40.4375 L 72.78125 -32.34375 L 48.515625 -32.34375 L 48.515625 -72.78125 L 88.953125 -72.78125 L 88.953125 -80.859375 L 97.03125 -80.859375 L 97.03125 -88.953125 L 88.953125 -88.953125 Z M 88.953125 -97.03125 "/></g></g></g></svg>