<svg xmlns="http://www.w3.org/2000/svg" xmlns:xlink="http://www.w3.org/1999/xlink" width="1920" zoomAndPan="magnify" viewBox="0 0 1440 809.999993" height="1080" preserveAspectRatio="xMidYMid meet" version="1.0"><defs><g/></defs><path stroke-linecap="butt" transform="matrix(0.613561, 0, 0, 0.613561, 61.181492, 315.9073)" fill="none" stroke-linejoin="miter" d="M 324.899567 36.389305 L 153.812132 36.389305 L 153.812132 50.650305 L 182.334132 50.650305 L 182.334132 64.911305 L 168.073132 64.911305 L 168.073132 79.172305 L 153.812132 79.172305 L 153.812132 93.433305 L 225.123499 93.433305 L 225.123499 107.700672 L 210.856132 107.700672 L 210.856132 121.904373 L 196.595132 121.904373 L 196.595132 136.165373 L 182.334132 136.165373 L 182.334132 150.426373 L 168.073132 150.426373 L 168.073132 164.687374 L 153.812132 164.687374 L 153.812132 178.948374 L 139.544765 178.948374 L 139.544765 221.73774 L 153.812132 221.73774 L 153.812132 235.998741 L 324.899567 235.998741 L 324.899567 221.73774 L 339.160567 221.73774 L 339.160567 178.948374 L 324.899567 178.948374 L 324.899567 164.687374 L 267.8492 164.687374 L 267.8492 150.426373 L 282.1102 150.426373 L 282.1102 136.165373 L 296.3712 136.165373 L 296.3712 121.904373 L 310.6322 121.904373 L 310.6322 107.700672 L 324.899567 107.700672 L 324.899567 93.433305 L 339.160567 93.433305 L 339.160567 50.650305 L 324.899567 50.650305 Z M 153.812132 50.650305 L 139.544765 50.650305 L 139.544765 79.172305 L 153.812132 79.172305 Z M 524.502636 64.911305 L 381.943567 64.911305 L 381.943567 79.172305 L 410.465568 79.172305 L 410.465568 93.433305 L 396.204568 93.433305 L 396.204568 107.700672 L 381.943567 107.700672 L 381.943567 79.172305 L 367.676201 79.172305 L 367.676201 221.73774 L 381.943567 221.73774 L 381.943567 235.998741 L 524.502636 235.998741 L 524.502636 221.73774 L 538.770003 221.73774 L 538.770003 193.21574 L 524.502636 193.21574 L 524.502636 178.948374 L 453.254934 178.948374 L 453.254934 164.687374 L 524.502636 164.687374 L 524.502636 150.426373 L 538.770003 150.426373 L 538.770003 136.165373 L 524.502636 136.165373 L 524.502636 121.904373 L 453.254934 121.904373 L 453.254934 107.700672 L 524.502636 107.700672 L 524.502636 93.433305 L 538.770003 93.433305 L 538.770003 79.172305 L 524.502636 79.172305 Z M 724.118439 79.172305 L 709.857438 79.172305 L 709.857438 64.911305 L 581.55937 64.911305 L 581.55937 79.172305 L 610.08137 79.172305 L 610.08137 93.433305 L 595.82037 93.433305 L 595.82037 107.700672 L 581.55937 107.700672 L 581.55937 79.172305 L 567.292003 79.172305 L 567.292003 221.73774 L 581.55937 221.73774 L 581.55937 235.998741 L 638.60337 235.998741 L 638.60337 221.73774 L 652.870737 221.73774 L 652.870737 178.948374 L 667.131737 178.948374 L 667.131737 193.21574 L 681.392737 193.21574 L 681.392737 207.47674 L 695.596438 207.47674 L 695.596438 221.73774 L 709.857438 221.73774 L 709.857438 235.998741 L 724.118439 235.998741 L 724.118439 221.73774 L 738.385805 221.73774 L 738.385805 178.948374 L 724.118439 178.948374 L 724.118439 164.687374 L 709.857438 164.687374 L 709.857438 150.426373 L 724.118439 150.426373 L 724.118439 136.165373 L 738.385805 136.165373 L 738.385805 93.433305 L 724.118439 93.433305 Z M 652.870737 121.904373 L 652.870737 107.700672 L 695.596438 107.700672 L 695.596438 121.904373 Z M 923.734241 79.172305 L 909.473241 79.172305 L 909.473241 64.911305 L 795.436172 64.911305 L 795.436172 79.172305 L 809.697172 79.172305 L 809.697172 93.433305 L 795.436172 93.433305 L 795.436172 107.700672 L 781.175172 107.700672 L 781.175172 93.433305 L 766.907805 93.433305 L 766.907805 207.47674 L 781.175172 207.47674 L 781.175172 221.73774 L 795.436172 221.73774 L 795.436172 235.998741 L 909.473241 235.998741 L 909.473241 221.73774 L 923.734241 221.73774 L 923.734241 207.47674 L 938.001607 207.47674 L 938.001607 93.433305 L 923.734241 93.433305 Z M 895.212241 178.948374 L 852.486539 178.948374 L 852.486539 107.700672 L 895.212241 107.700672 Z M 895.212241 178.948374 " stroke="#000000" stroke-width="40.299168" stroke-opacity="1" stroke-miterlimit="4"/><path stroke-linecap="butt" transform="matrix(0.613561, 0, 0, 0.613561, 61.181492, 315.9073)" fill="none" stroke-linejoin="miter" d="M 1151.884776 50.650305 L 1137.61741 50.650305 L 1137.61741 36.389305 L 980.790974 36.389305 L 980.790974 50.650305 L 1009.319341 50.650305 L 1009.319341 64.911305 L 995.058341 64.911305 L 995.058341 79.172305 L 980.790974 79.172305 L 980.790974 93.433305 L 1094.834409 93.433305 L 1094.834409 107.700672 L 995.058341 107.700672 L 995.058341 121.904373 L 980.790974 121.904373 L 980.790974 136.165373 L 966.529974 136.165373 L 966.529974 221.73774 L 980.790974 221.73774 L 980.790974 235.998741 L 1151.884776 235.998741 L 1151.884776 221.73774 L 1166.145776 221.73774 L 1166.145776 178.948374 L 1151.884776 178.948374 L 1151.884776 164.687374 L 1066.369708 164.687374 L 1066.369708 150.426373 L 1137.61741 150.426373 L 1137.61741 136.165373 L 1151.884776 136.165373 L 1151.884776 121.904373 L 1166.145776 121.904373 L 1166.145776 64.911305 L 1151.884776 64.911305 Z M 980.790974 50.650305 L 966.529974 50.650305 L 966.529974 79.172305 L 980.790974 79.172305 Z M 980.790974 50.650305 " stroke="#000000" stroke-width="40.299168" stroke-opacity="1" stroke-miterlimit="4"/><path stroke-linecap="butt" transform="matrix(0.613561, 0, 0, 0.613561, 61.181492, 315.9073)" fill="none" stroke-linejoin="miter" d="M 1380.022579 36.389305 L 1208.935143 36.389305 L 1208.935143 50.650305 L 1237.457143 50.650305 L 1237.457143 64.911305 L 1223.196143 64.911305 L 1223.196143 79.172305 L 1208.935143 79.172305 L 1208.935143 50.650305 L 1194.674143 50.650305 L 1194.674143 221.73774 L 1208.935143 221.73774 L 1208.935143 235.998741 L 1280.24651 235.998741 L 1280.24651 221.73774 L 1294.50751 221.73774 L 1294.50751 150.426373 L 1380.022579 150.426373 L 1380.022579 136.165373 L 1394.283579 136.165373 L 1394.283579 121.904373 L 1380.022579 121.904373 L 1380.022579 107.700672 L 1294.50751 107.700672 L 1294.50751 79.172305 L 1380.022579 79.172305 L 1380.022579 64.911305 L 1394.283579 64.911305 L 1394.283579 50.650305 L 1380.022579 50.650305 Z M 1565.371014 178.948374 L 1508.377946 178.948374 L 1508.377946 79.172305 L 1494.116946 79.172305 L 1494.116946 64.911305 L 1437.066579 64.911305 L 1437.066579 79.172305 L 1465.588579 79.172305 L 1465.588579 93.433305 L 1451.327579 93.433305 L 1451.327579 107.700672 L 1437.066579 107.700672 L 1437.066579 79.172305 L 1422.805579 79.172305 L 1422.805579 221.73774 L 1437.066579 221.73774 L 1437.066579 235.998741 L 1565.371014 235.998741 L 1565.371014 221.73774 L 1579.632015 221.73774 L 1579.632015 193.21574 L 1565.371014 193.21574 Z M 1764.986817 79.172305 L 1750.725817 79.172305 L 1750.725817 64.911305 L 1636.688748 64.911305 L 1636.688748 79.172305 L 1650.949748 79.172305 L 1650.949748 93.433305 L 1636.688748 93.433305 L 1636.688748 107.700672 L 1622.421381 107.700672 L 1622.421381 93.433305 L 1608.160381 93.433305 L 1608.160381 221.73774 L 1622.421381 221.73774 L 1622.421381 235.998741 L 1679.471748 235.998741 L 1679.471748 221.73774 L 1693.732748 221.73774 L 1693.732748 164.687374 L 1736.464816 164.687374 L 1736.464816 221.73774 L 1750.725817 221.73774 L 1750.725817 235.998741 L 1764.986817 235.998741 L 1764.986817 221.73774 L 1779.247817 221.73774 L 1779.247817 93.433305 L 1764.986817 93.433305 Z M 1736.464816 121.904373 L 1693.732748 121.904373 L 1693.732748 107.700672 L 1736.464816 107.700672 Z M 1964.602619 64.911305 L 1836.30455 64.911305 L 1836.30455 79.172305 L 1850.56555 79.172305 L 1850.56555 93.433305 L 1836.30455 93.433305 L 1836.30455 107.700672 L 1822.037184 107.700672 L 1822.037184 93.433305 L 1807.776183 93.433305 L 1807.776183 207.47674 L 1822.037184 207.47674 L 1822.037184 221.73774 L 1836.30455 221.73774 L 1836.30455 235.998741 L 1950.341619 235.998741 L 1950.341619 221.73774 L 1964.602619 221.73774 L 1964.602619 207.47674 L 1978.863619 207.47674 L 1978.863619 136.165373 L 1964.602619 136.165373 L 1964.602619 121.904373 L 1921.876917 121.904373 L 1921.876917 136.165373 L 1907.615917 136.165373 L 1907.615917 150.426373 L 1921.876917 150.426373 L 1921.876917 164.687374 L 1936.080619 164.687374 L 1936.080619 178.948374 L 1893.348551 178.948374 L 1893.348551 107.700672 L 1964.602619 107.700672 L 1964.602619 93.433305 L 1978.863619 93.433305 L 1978.863619 79.172305 L 1964.602619 79.172305 Z M 1964.602619 64.911305 " stroke="#000000" stroke-width="40.299168" stroke-opacity="1" stroke-miterlimit="4"/><g fill="#ffffff" fill-opacity="1"><g transform="translate(146.802076, 460.707804)"><g><path d="M 113.734375 -122.484375 L 8.75 -122.484375 L 8.75 -113.734375 L 26.25 -113.734375 L 26.25 -104.984375 L 17.5 -104.984375 L 17.5 -96.234375 L 8.75 -96.234375 L 8.75 -87.484375 L 52.5 -87.484375 L 52.5 -78.734375 L 43.75 -78.734375 L 43.75 -70 L 35 -70 L 35 -61.25 L 26.25 -61.25 L 26.25 -52.5 L 17.5 -52.5 L 17.5 -43.75 L 8.75 -43.75 L 8.75 -35 L 0 -35 L 0 -8.75 L 8.75 -8.75 L 8.75 0 L 113.734375 0 L 113.734375 -8.75 L 122.484375 -8.75 L 122.484375 -35 L 113.734375 -35 L 113.734375 -43.75 L 78.734375 -43.75 L 78.734375 -52.5 L 87.484375 -52.5 L 87.484375 -61.25 L 96.234375 -61.25 L 96.234375 -70 L 104.984375 -70 L 104.984375 -78.734375 L 113.734375 -78.734375 L 113.734375 -87.484375 L 122.484375 -87.484375 L 122.484375 -113.734375 L 113.734375 -113.734375 Z M 8.75 -113.734375 L 0 -113.734375 L 0 -96.234375 L 8.75 -96.234375 Z M 8.75 -113.734375 "/></g></g></g><g fill="#ffffff" fill-opacity="1"><g transform="translate(286.775232, 460.707804)"><g><path d="M 96.234375 -104.984375 L 8.75 -104.984375 L 8.75 -96.234375 L 26.25 -96.234375 L 26.25 -87.484375 L 17.5 -87.484375 L 17.5 -78.734375 L 8.75 -78.734375 L 8.75 -96.234375 L 0 -96.234375 L 0 -8.75 L 8.75 -8.75 L 8.75 0 L 96.234375 0 L 96.234375 -8.75 L 104.984375 -8.75 L 104.984375 -26.25 L 96.234375 -26.25 L 96.234375 -35 L 52.5 -35 L 52.5 -43.75 L 96.234375 -43.75 L 96.234375 -52.5 L 104.984375 -52.5 L 104.984375 -61.25 L 96.234375 -61.25 L 96.234375 -70 L 52.5 -70 L 52.5 -78.734375 L 96.234375 -78.734375 L 96.234375 -87.484375 L 104.984375 -87.484375 L 104.984375 -96.234375 L 96.234375 -96.234375 Z M 96.234375 -104.984375 "/></g></g></g><g fill="#ffffff" fill-opacity="1"><g transform="translate(409.251756, 460.707804)"><g><path d="M 96.234375 -96.234375 L 87.484375 -96.234375 L 87.484375 -104.984375 L 8.75 -104.984375 L 8.75 -96.234375 L 26.25 -96.234375 L 26.25 -87.484375 L 17.5 -87.484375 L 17.5 -78.734375 L 8.75 -78.734375 L 8.75 -96.234375 L 0 -96.234375 L 0 -8.75 L 8.75 -8.75 L 8.75 0 L 43.75 0 L 43.75 -8.75 L 52.5 -8.75 L 52.5 -35 L 61.25 -35 L 61.25 -26.25 L 70 -26.25 L 70 -17.5 L 78.734375 -17.5 L 78.734375 -8.75 L 87.484375 -8.75 L 87.484375 0 L 96.234375 0 L 96.234375 -8.75 L 104.984375 -8.75 L 104.984375 -35 L 96.234375 -35 L 96.234375 -43.75 L 87.484375 -43.75 L 87.484375 -52.5 L 96.234375 -52.5 L 96.234375 -61.25 L 104.984375 -61.25 L 104.984375 -87.484375 L 96.234375 -87.484375 Z M 52.5 -70 L 52.5 -78.734375 L 78.734375 -78.734375 L 78.734375 -70 Z M 52.5 -70 "/></g></g></g><g fill="#ffffff" fill-opacity="1"><g transform="translate(531.728268, 460.707804)"><g><path d="M 96.234375 -96.234375 L 87.484375 -96.234375 L 87.484375 -104.984375 L 17.5 -104.984375 L 17.5 -96.234375 L 26.25 -96.234375 L 26.25 -87.484375 L 17.5 -87.484375 L 17.5 -78.734375 L 8.75 -78.734375 L 8.75 -87.484375 L 0 -87.484375 L 0 -17.5 L 8.75 -17.5 L 8.75 -8.75 L 17.5 -8.75 L 17.5 0 L 87.484375 0 L 87.484375 -8.75 L 96.234375 -8.75 L 96.234375 -17.5 L 104.984375 -17.5 L 104.984375 -87.484375 L 96.234375 -87.484375 Z M 78.734375 -35 L 52.5 -35 L 52.5 -78.734375 L 78.734375 -78.734375 Z M 78.734375 -35 "/></g></g></g><g fill="#ff66c4" fill-opacity="1"><g transform="translate(654.207814, 460.707804)"><g><path d="M 113.734375 -113.734375 L 104.984375 -113.734375 L 104.984375 -122.484375 L 8.75 -122.484375 L 8.75 -113.734375 L 26.25 -113.734375 L 26.25 -104.984375 L 17.5 -104.984375 L 17.5 -96.234375 L 8.75 -96.234375 L 8.75 -87.484375 L 78.734375 -87.484375 L 78.734375 -78.734375 L 17.5 -78.734375 L 17.5 -70 L 8.75 -70 L 8.75 -61.25 L 0 -61.25 L 0 -8.75 L 8.75 -8.75 L 8.75 0 L 113.734375 0 L 113.734375 -8.75 L 122.484375 -8.75 L 122.484375 -35 L 113.734375 -35 L 113.734375 -43.75 L 61.25 -43.75 L 61.25 -52.5 L 104.984375 -52.5 L 104.984375 -61.25 L 113.734375 -61.25 L 113.734375 -70 L 122.484375 -70 L 122.484375 -104.984375 L 113.734375 -104.984375 Z M 8.75 -113.734375 L 0 -113.734375 L 0 -96.234375 L 8.75 -96.234375 Z M 8.75 -113.734375 "/></g></g></g><g fill="#ffffff" fill-opacity="1"><g transform="translate(794.186111, 460.707804)"><g><path d="M 113.734375 -122.484375 L 8.75 -122.484375 L 8.75 -113.734375 L 26.25 -113.734375 L 26.25 -104.984375 L 17.5 -104.984375 L 17.5 -96.234375 L 8.75 -96.234375 L 8.75 -113.734375 L 0 -113.734375 L 0 -8.75 L 8.75 -8.75 L 8.75 0 L 52.5 0 L 52.5 -8.75 L 61.25 -8.75 L 61.25 -52.5 L 113.734375 -52.5 L 113.734375 -61.25 L 122.484375 -61.25 L 122.484375 -70 L 113.734375 -70 L 113.734375 -78.734375 L 61.25 -78.734375 L 61.25 -96.234375 L 113.734375 -96.234375 L 113.734375 -104.984375 L 122.484375 -104.984375 L 122.484375 -113.734375 L 113.734375 -113.734375 Z M 113.734375 -122.484375 "/></g></g></g><g fill="#ffffff" fill-opacity="1"><g transform="translate(934.159267, 460.707804)"><g><path d="M 87.484375 -35 L 52.5 -35 L 52.5 -96.234375 L 43.75 -96.234375 L 43.75 -104.984375 L 8.75 -104.984375 L 8.75 -96.234375 L 26.25 -96.234375 L 26.25 -87.484375 L 17.5 -87.484375 L 17.5 -78.734375 L 8.75 -78.734375 L 8.75 -96.234375 L 0 -96.234375 L 0 -8.75 L 8.75 -8.75 L 8.75 0 L 87.484375 0 L 87.484375 -8.75 L 96.234375 -8.75 L 96.234375 -26.25 L 87.484375 -26.25 Z M 87.484375 -35 "/></g></g></g><g fill="#ffffff" fill-opacity="1"><g transform="translate(1047.887448, 460.707804)"><g><path d="M 96.234375 -96.234375 L 87.484375 -96.234375 L 87.484375 -104.984375 L 17.5 -104.984375 L 17.5 -96.234375 L 26.25 -96.234375 L 26.25 -87.484375 L 17.5 -87.484375 L 17.5 -78.734375 L 8.75 -78.734375 L 8.75 -87.484375 L 0 -87.484375 L 0 -8.75 L 8.75 -8.75 L 8.75 0 L 43.75 0 L 43.75 -8.75 L 52.5 -8.75 L 52.5 -43.75 L 78.734375 -43.75 L 78.734375 -8.75 L 87.484375 -8.75 L 87.484375 0 L 96.234375 0 L 96.234375 -8.75 L 104.984375 -8.75 L 104.984375 -87.484375 L 96.234375 -87.484375 Z M 78.734375 -70 L 52.5 -70 L 52.5 -78.734375 L 78.734375 -78.734375 Z M 78.734375 -70 "/></g></g></g><g fill="#ffffff" fill-opacity="1"><g transform="translate(1170.36396, 460.707804)"><g><path d="M 96.234375 -104.984375 L 17.5 -104.984375 L 17.5 -96.234375 L 26.25 -96.234375 L 26.25 -87.484375 L 17.5 -87.484375 L 17.5 -78.734375 L 8.75 -78.734375 L 8.75 -87.484375 L 0 -87.484375 L 0 -17.5 L 8.75 -17.5 L 8.75 -8.75 L 17.5 -8.75 L 17.5 0 L 87.484375 0 L 87.484375 -8.75 L 96.234375 -8.75 L 96.234375 -17.5 L 104.984375 -17.5 L 104.984375 -61.25 L 96.234375 -61.25 L 96.234375 -70 L 70 -70 L 70 -61.25 L 61.25 -61.25 L 61.25 -52.5 L 70 -52.5 L 70 -43.75 L 78.734375 -43.75 L 78.734375 -35 L 52.5 -35 L 52.5 -78.734375 L 96.234375 -78.734375 L 96.234375 -87.484375 L 104.984375 -87.484375 L 104.984375 -96.234375 L 96.234375 -96.234375 Z M 96.234375 -104.984375 "/></g></g></g></svg>