<svg xmlns="http://www.w3.org/2000/svg" xmlns:xlink="http://www.w3.org/1999/xlink" width="2600" zoomAndPan="magnify" viewBox="0 0 1950 263.99999" height="352" preserveAspectRatio="xMidYMid meet" version="1.0"><defs><g/></defs><path stroke-linecap="butt" transform="matrix(0.908107, 0, 0, 0.908107, 0.0000387784, 1.10063)" fill="none" stroke-linejoin="miter" d="M 324.89885 36.387672 L 153.80978 36.387672 L 153.80978 50.647246 L 182.333228 50.647246 L 182.333228 64.91112 L 168.069353 64.91112 L 168.069353 79.174995 L 153.80978 79.174995 L 153.80978 93.434568 L 225.120551 93.434568 L 225.120551 107.698443 L 210.856676 107.698443 L 210.856676 121.902097 L 196.597103 121.902097 L 196.597103 136.165971 L 182.333228 136.165971 L 182.333228 150.425545 L 168.069353 150.425545 L 168.069353 164.68942 L 153.80978 164.68942 L 153.80978 178.948993 L 139.545905 178.948993 L 139.545905 221.736316 L 153.80978 221.736316 L 153.80978 236.000191 L 324.89885 236.000191 L 324.89885 221.736316 L 339.158424 221.736316 L 339.158424 178.948993 L 324.89885 178.948993 L 324.89885 164.68942 L 267.847653 164.68942 L 267.847653 150.425545 L 282.111527 150.425545 L 282.111527 136.165971 L 296.371101 136.165971 L 296.371101 121.902097 L 310.634975 121.902097 L 310.634975 107.698443 L 324.89885 107.698443 L 324.89885 93.434568 L 339.158424 93.434568 L 339.158424 50.647246 L 324.89885 50.647246 Z M 153.80978 50.647246 L 139.545905 50.647246 L 139.545905 79.174995 L 153.80978 79.174995 Z M 524.507067 64.91112 L 381.941445 64.91112 L 381.941445 79.174995 L 410.464893 79.174995 L 410.464893 93.434568 L 396.20532 93.434568 L 396.20532 107.698443 L 381.941445 107.698443 L 381.941445 79.174995 L 367.67757 79.174995 L 367.67757 221.736316 L 381.941445 221.736316 L 381.941445 236.000191 L 524.507067 236.000191 L 524.507067 221.736316 L 538.76664 221.736316 L 538.76664 193.212868 L 524.507067 193.212868 L 524.507067 178.948993 L 453.252216 178.948993 L 453.252216 164.68942 L 524.507067 164.68942 L 524.507067 150.425545 L 538.76664 150.425545 L 538.76664 136.165971 L 524.507067 136.165971 L 524.507067 121.902097 L 453.252216 121.902097 L 453.252216 107.698443 L 524.507067 107.698443 L 524.507067 93.434568 L 538.76664 93.434568 L 538.76664 79.174995 L 524.507067 79.174995 Z M 724.119586 79.174995 L 709.860012 79.174995 L 709.860012 64.91112 L 581.558265 64.91112 L 581.558265 79.174995 L 610.081713 79.174995 L 610.081713 93.434568 L 595.817838 93.434568 L 595.817838 107.698443 L 581.558265 107.698443 L 581.558265 79.174995 L 567.29439 79.174995 L 567.29439 221.736316 L 581.558265 221.736316 L 581.558265 236.000191 L 638.605161 236.000191 L 638.605161 221.736316 L 652.869036 221.736316 L 652.869036 178.948993 L 667.132911 178.948993 L 667.132911 193.212868 L 681.392484 193.212868 L 681.392484 207.476743 L 695.596137 207.476743 L 695.596137 221.736316 L 709.860012 221.736316 L 709.860012 236.000191 L 724.119586 236.000191 L 724.119586 221.736316 L 738.38346 221.736316 L 738.38346 178.948993 L 724.119586 178.948993 L 724.119586 164.68942 L 709.860012 164.68942 L 709.860012 150.425545 L 724.119586 150.425545 L 724.119586 136.165971 L 738.38346 136.165971 L 738.38346 93.434568 L 724.119586 93.434568 Z M 652.869036 121.902097 L 652.869036 107.698443 L 695.596137 107.698443 L 695.596137 121.902097 Z M 923.736405 79.174995 L 909.472531 79.174995 L 909.472531 64.91112 L 795.434658 64.91112 L 795.434658 79.174995 L 809.698533 79.174995 L 809.698533 93.434568 L 795.434658 93.434568 L 795.434658 107.698443 L 781.170783 107.698443 L 781.170783 93.434568 L 766.91121 93.434568 L 766.91121 207.476743 L 781.170783 207.476743 L 781.170783 221.736316 L 795.434658 221.736316 L 795.434658 236.000191 L 909.472531 236.000191 L 909.472531 221.736316 L 923.736405 221.736316 L 923.736405 207.476743 L 938.00028 207.476743 L 938.00028 93.434568 L 923.736405 93.434568 Z M 895.212957 178.948993 L 852.485856 178.948993 L 852.485856 107.698443 L 895.212957 107.698443 Z M 895.212957 178.948993 " stroke="#000000" stroke-width="40.299168" stroke-opacity="1" stroke-miterlimit="4"/><path stroke-linecap="butt" transform="matrix(0.908107, 0, 0, 0.908107, 0.0000387784, 1.10063)" fill="none" stroke-linejoin="miter" d="M 1151.880975 50.647246 L 1137.621402 50.647246 L 1137.621402 36.387672 L 980.791905 36.387672 L 980.791905 50.647246 L 1009.319654 50.647246 L 1009.319654 64.91112 L 995.05578 64.91112 L 995.05578 79.174995 L 980.791905 79.174995 L 980.791905 93.434568 L 1094.834079 93.434568 L 1094.834079 107.698443 L 995.05578 107.698443 L 995.05578 121.902097 L 980.791905 121.902097 L 980.791905 136.165971 L 966.532331 136.165971 L 966.532331 221.736316 L 980.791905 221.736316 L 980.791905 236.000191 L 1151.880975 236.000191 L 1151.880975 221.736316 L 1166.14485 221.736316 L 1166.14485 178.948993 L 1151.880975 178.948993 L 1151.880975 164.68942 L 1066.366551 164.68942 L 1066.366551 150.425545 L 1137.621402 150.425545 L 1137.621402 136.165971 L 1151.880975 136.165971 L 1151.880975 121.902097 L 1166.14485 121.902097 L 1166.14485 64.91112 L 1151.880975 64.91112 Z M 980.791905 50.647246 L 966.532331 50.647246 L 966.532331 79.174995 L 980.791905 79.174995 Z M 980.791905 50.647246 " stroke="#000000" stroke-width="40.299168" stroke-opacity="1" stroke-miterlimit="4"/><path stroke-linecap="butt" transform="matrix(0.908107, 0, 0, 0.908107, 0.0000387784, 1.10063)" fill="none" stroke-linejoin="miter" d="M 1380.021243 36.387672 L 1208.932173 36.387672 L 1208.932173 50.647246 L 1237.459922 50.647246 L 1237.459922 64.91112 L 1223.196048 64.91112 L 1223.196048 79.174995 L 1208.932173 79.174995 L 1208.932173 50.647246 L 1194.6726 50.647246 L 1194.6726 221.736316 L 1208.932173 221.736316 L 1208.932173 236.000191 L 1280.247245 236.000191 L 1280.247245 221.736316 L 1294.506819 221.736316 L 1294.506819 150.425545 L 1380.021243 150.425545 L 1380.021243 136.165971 L 1394.285118 136.165971 L 1394.285118 121.902097 L 1380.021243 121.902097 L 1380.021243 107.698443 L 1294.506819 107.698443 L 1294.506819 79.174995 L 1380.021243 79.174995 L 1380.021243 64.91112 L 1394.285118 64.91112 L 1394.285118 50.647246 L 1380.021243 50.647246 Z M 1565.369887 178.948993 L 1508.37891 178.948993 L 1508.37891 79.174995 L 1494.115036 79.174995 L 1494.115036 64.91112 L 1437.068139 64.91112 L 1437.068139 79.174995 L 1465.591587 79.174995 L 1465.591587 93.434568 L 1451.327713 93.434568 L 1451.327713 107.698443 L 1437.068139 107.698443 L 1437.068139 79.174995 L 1422.804265 79.174995 L 1422.804265 221.736316 L 1437.068139 221.736316 L 1437.068139 236.000191 L 1565.369887 236.000191 L 1565.369887 221.736316 L 1579.62946 221.736316 L 1579.62946 193.212868 L 1565.369887 193.212868 Z M 1764.986707 79.174995 L 1750.727133 79.174995 L 1750.727133 64.91112 L 1636.684959 64.91112 L 1636.684959 79.174995 L 1650.948834 79.174995 L 1650.948834 93.434568 L 1636.684959 93.434568 L 1636.684959 107.698443 L 1622.425386 107.698443 L 1622.425386 93.434568 L 1608.161511 93.434568 L 1608.161511 221.736316 L 1622.425386 221.736316 L 1622.425386 236.000191 L 1679.472282 236.000191 L 1679.472282 221.736316 L 1693.736157 221.736316 L 1693.736157 164.68942 L 1736.463259 164.68942 L 1736.463259 221.736316 L 1750.727133 221.736316 L 1750.727133 236.000191 L 1764.986707 236.000191 L 1764.986707 221.736316 L 1779.250581 221.736316 L 1779.250581 93.434568 L 1764.986707 93.434568 Z M 1736.463259 121.902097 L 1693.736157 121.902097 L 1693.736157 107.698443 L 1736.463259 107.698443 Z M 1964.603527 64.91112 L 1836.301779 64.91112 L 1836.301779 79.174995 L 1850.565654 79.174995 L 1850.565654 93.434568 L 1836.301779 93.434568 L 1836.301779 107.698443 L 1822.037904 107.698443 L 1822.037904 93.434568 L 1807.778331 93.434568 L 1807.778331 207.476743 L 1822.037904 207.476743 L 1822.037904 221.736316 L 1836.301779 221.736316 L 1836.301779 236.000191 L 1950.339652 236.000191 L 1950.339652 221.736316 L 1964.603527 221.736316 L 1964.603527 207.476743 L 1978.867401 207.476743 L 1978.867401 136.165971 L 1964.603527 136.165971 L 1964.603527 121.902097 L 1921.876425 121.902097 L 1921.876425 136.165971 L 1907.61255 136.165971 L 1907.61255 150.425545 L 1921.876425 150.425545 L 1921.876425 164.68942 L 1936.080078 164.68942 L 1936.080078 178.948993 L 1893.352977 178.948993 L 1893.352977 107.698443 L 1964.603527 107.698443 L 1964.603527 93.434568 L 1978.867401 93.434568 L 1978.867401 79.174995 L 1964.603527 79.174995 Z M 1964.603527 64.91112 " stroke="#000000" stroke-width="40.299168" stroke-opacity="1" stroke-miterlimit="4"/><g fill="#ffffff" fill-opacity="1"><g transform="translate(126.723537, 215.413889)"><g><path d="M 168.328125 -181.28125 L 12.953125 -181.28125 L 12.953125 -168.328125 L 38.84375 -168.328125 L 38.84375 -155.375 L 25.890625 -155.375 L 25.890625 -142.4375 L 12.953125 -142.4375 L 12.953125 -129.484375 L 77.6875 -129.484375 L 77.6875 -116.53125 L 64.75 -116.53125 L 64.75 -103.59375 L 51.796875 -103.59375 L 51.796875 -90.640625 L 38.84375 -90.640625 L 38.84375 -77.6875 L 25.890625 -77.6875 L 25.890625 -64.75 L 12.953125 -64.75 L 12.953125 -51.796875 L 0 -51.796875 L 0 -12.953125 L 12.953125 -12.953125 L 12.953125 0 L 168.328125 0 L 168.328125 -12.953125 L 181.28125 -12.953125 L 181.28125 -51.796875 L 168.328125 -51.796875 L 168.328125 -64.75 L 116.53125 -64.75 L 116.53125 -77.6875 L 129.484375 -77.6875 L 129.484375 -90.640625 L 142.4375 -90.640625 L 142.4375 -103.59375 L 155.375 -103.59375 L 155.375 -116.53125 L 168.328125 -116.53125 L 168.328125 -129.484375 L 181.28125 -129.484375 L 181.28125 -168.328125 L 168.328125 -168.328125 Z M 12.953125 -168.328125 L 0 -168.328125 L 0 -142.4375 L 12.953125 -142.4375 Z M 12.953125 -168.328125 "/></g></g></g><g fill="#ffffff" fill-opacity="1"><g transform="translate(333.892037, 215.413889)"><g><path d="M 142.4375 -155.375 L 12.953125 -155.375 L 12.953125 -142.4375 L 38.84375 -142.4375 L 38.84375 -129.484375 L 25.890625 -129.484375 L 25.890625 -116.53125 L 12.953125 -116.53125 L 12.953125 -142.4375 L 0 -142.4375 L 0 -12.953125 L 12.953125 -12.953125 L 12.953125 0 L 142.4375 0 L 142.4375 -12.953125 L 155.375 -12.953125 L 155.375 -38.84375 L 142.4375 -38.84375 L 142.4375 -51.796875 L 77.6875 -51.796875 L 77.6875 -64.75 L 142.4375 -64.75 L 142.4375 -77.6875 L 155.375 -77.6875 L 155.375 -90.640625 L 142.4375 -90.640625 L 142.4375 -103.59375 L 77.6875 -103.59375 L 77.6875 -116.53125 L 142.4375 -116.53125 L 142.4375 -129.484375 L 155.375 -129.484375 L 155.375 -142.4375 L 142.4375 -142.4375 Z M 142.4375 -155.375 "/></g></g></g><g fill="#ffffff" fill-opacity="1"><g transform="translate(515.164494, 215.413889)"><g><path d="M 142.4375 -142.4375 L 129.484375 -142.4375 L 129.484375 -155.375 L 12.953125 -155.375 L 12.953125 -142.4375 L 38.84375 -142.4375 L 38.84375 -129.484375 L 25.890625 -129.484375 L 25.890625 -116.53125 L 12.953125 -116.53125 L 12.953125 -142.4375 L 0 -142.4375 L 0 -12.953125 L 12.953125 -12.953125 L 12.953125 0 L 64.75 0 L 64.75 -12.953125 L 77.6875 -12.953125 L 77.6875 -51.796875 L 90.640625 -51.796875 L 90.640625 -38.84375 L 103.59375 -38.84375 L 103.59375 -25.890625 L 116.53125 -25.890625 L 116.53125 -12.953125 L 129.484375 -12.953125 L 129.484375 0 L 142.4375 0 L 142.4375 -12.953125 L 155.375 -12.953125 L 155.375 -51.796875 L 142.4375 -51.796875 L 142.4375 -64.75 L 129.484375 -64.75 L 129.484375 -77.6875 L 142.4375 -77.6875 L 142.4375 -90.640625 L 155.375 -90.640625 L 155.375 -129.484375 L 142.4375 -129.484375 Z M 77.6875 -103.59375 L 77.6875 -116.53125 L 116.53125 -116.53125 L 116.53125 -103.59375 Z M 77.6875 -103.59375 "/></g></g></g><g fill="#ffffff" fill-opacity="1"><g transform="translate(696.436932, 215.413889)"><g><path d="M 142.4375 -142.4375 L 129.484375 -142.4375 L 129.484375 -155.375 L 25.890625 -155.375 L 25.890625 -142.4375 L 38.84375 -142.4375 L 38.84375 -129.484375 L 25.890625 -129.484375 L 25.890625 -116.53125 L 12.953125 -116.53125 L 12.953125 -129.484375 L 0 -129.484375 L 0 -25.890625 L 12.953125 -25.890625 L 12.953125 -12.953125 L 25.890625 -12.953125 L 25.890625 0 L 129.484375 0 L 129.484375 -12.953125 L 142.4375 -12.953125 L 142.4375 -25.890625 L 155.375 -25.890625 L 155.375 -129.484375 L 142.4375 -129.484375 Z M 116.53125 -51.796875 L 77.6875 -51.796875 L 77.6875 -116.53125 L 116.53125 -116.53125 Z M 116.53125 -51.796875 "/></g></g></g><g fill="#ff66c4" fill-opacity="1"><g transform="translate(877.713862, 215.413889)"><g><path d="M 168.328125 -168.328125 L 155.375 -168.328125 L 155.375 -181.28125 L 12.953125 -181.28125 L 12.953125 -168.328125 L 38.84375 -168.328125 L 38.84375 -155.375 L 25.890625 -155.375 L 25.890625 -142.4375 L 12.953125 -142.4375 L 12.953125 -129.484375 L 116.53125 -129.484375 L 116.53125 -116.53125 L 25.890625 -116.53125 L 25.890625 -103.59375 L 12.953125 -103.59375 L 12.953125 -90.640625 L 0 -90.640625 L 0 -12.953125 L 12.953125 -12.953125 L 12.953125 0 L 168.328125 0 L 168.328125 -12.953125 L 181.28125 -12.953125 L 181.28125 -51.796875 L 168.328125 -51.796875 L 168.328125 -64.75 L 90.640625 -64.75 L 90.640625 -77.6875 L 155.375 -77.6875 L 155.375 -90.640625 L 168.328125 -90.640625 L 168.328125 -103.59375 L 181.28125 -103.59375 L 181.28125 -155.375 L 168.328125 -155.375 Z M 12.953125 -168.328125 L 0 -168.328125 L 0 -142.4375 L 12.953125 -142.4375 Z M 12.953125 -168.328125 "/></g></g></g><g fill="#ffffff" fill-opacity="1"><g transform="translate(1084.889972, 215.413889)"><g><path d="M 168.328125 -181.28125 L 12.953125 -181.28125 L 12.953125 -168.328125 L 38.84375 -168.328125 L 38.84375 -155.375 L 25.890625 -155.375 L 25.890625 -142.4375 L 12.953125 -142.4375 L 12.953125 -168.328125 L 0 -168.328125 L 0 -12.953125 L 12.953125 -12.953125 L 12.953125 0 L 77.6875 0 L 77.6875 -12.953125 L 90.640625 -12.953125 L 90.640625 -77.6875 L 168.328125 -77.6875 L 168.328125 -90.640625 L 181.28125 -90.640625 L 181.28125 -103.59375 L 168.328125 -103.59375 L 168.328125 -116.53125 L 90.640625 -116.53125 L 90.640625 -142.4375 L 168.328125 -142.4375 L 168.328125 -155.375 L 181.28125 -155.375 L 181.28125 -168.328125 L 168.328125 -168.328125 Z M 168.328125 -181.28125 "/></g></g></g><g fill="#ffffff" fill-opacity="1"><g transform="translate(1292.058472, 215.413889)"><g><path d="M 129.484375 -51.796875 L 77.6875 -51.796875 L 77.6875 -142.4375 L 64.75 -142.4375 L 64.75 -155.375 L 12.953125 -155.375 L 12.953125 -142.4375 L 38.84375 -142.4375 L 38.84375 -129.484375 L 25.890625 -129.484375 L 25.890625 -116.53125 L 12.953125 -116.53125 L 12.953125 -142.4375 L 0 -142.4375 L 0 -12.953125 L 12.953125 -12.953125 L 12.953125 0 L 129.484375 0 L 129.484375 -12.953125 L 142.4375 -12.953125 L 142.4375 -38.84375 L 129.484375 -38.84375 Z M 129.484375 -51.796875 "/></g></g></g><g fill="#ffffff" fill-opacity="1"><g transform="translate(1460.382866, 215.413889)"><g><path d="M 142.4375 -142.4375 L 129.484375 -142.4375 L 129.484375 -155.375 L 25.890625 -155.375 L 25.890625 -142.4375 L 38.84375 -142.4375 L 38.84375 -129.484375 L 25.890625 -129.484375 L 25.890625 -116.53125 L 12.953125 -116.53125 L 12.953125 -129.484375 L 0 -129.484375 L 0 -12.953125 L 12.953125 -12.953125 L 12.953125 0 L 64.75 0 L 64.75 -12.953125 L 77.6875 -12.953125 L 77.6875 -64.75 L 116.53125 -64.75 L 116.53125 -12.953125 L 129.484375 -12.953125 L 129.484375 0 L 142.4375 0 L 142.4375 -12.953125 L 155.375 -12.953125 L 155.375 -129.484375 L 142.4375 -129.484375 Z M 116.53125 -103.59375 L 77.6875 -103.59375 L 77.6875 -116.53125 L 116.53125 -116.53125 Z M 116.53125 -103.59375 "/></g></g></g><g fill="#ffffff" fill-opacity="1"><g transform="translate(1641.655305, 215.413889)"><g><path d="M 142.4375 -155.375 L 25.890625 -155.375 L 25.890625 -142.4375 L 38.84375 -142.4375 L 38.84375 -129.484375 L 25.890625 -129.484375 L 25.890625 -116.53125 L 12.953125 -116.53125 L 12.953125 -129.484375 L 0 -129.484375 L 0 -25.890625 L 12.953125 -25.890625 L 12.953125 -12.953125 L 25.890625 -12.953125 L 25.890625 0 L 129.484375 0 L 129.484375 -12.953125 L 142.4375 -12.953125 L 142.4375 -25.890625 L 155.375 -25.890625 L 155.375 -90.640625 L 142.4375 -90.640625 L 142.4375 -103.59375 L 103.59375 -103.59375 L 103.59375 -90.640625 L 90.640625 -90.640625 L 90.640625 -77.6875 L 103.59375 -77.6875 L 103.59375 -64.75 L 116.53125 -64.75 L 116.53125 -51.796875 L 77.6875 -51.796875 L 77.6875 -116.53125 L 142.4375 -116.53125 L 142.4375 -129.484375 L 155.375 -129.484375 L 155.375 -142.4375 L 142.4375 -142.4375 Z M 142.4375 -155.375 "/></g></g></g></svg>